<svg width="160" height="18" viewBox="0 0 160 23" fill="none" xmlns="http://www.w3.org/2000/svg">
          <path fill-rule="evenodd" clip-rule="evenodd" d="M10.7942 0C17.7699 0 22.4204 2.53856 22.4204 6.74106C22.4204 8.72497 20.8845 10.6662 18.5592 12.0742C20.3938 15.3594 22.3777 18.3032 25.1083 21.8444H23.359C17.5139 21.8444 14.3781 19.5619 11.6902 14.0581C11.4982 14.0794 11.2849 14.0794 11.0929 14.0794C10.9009 14.0794 10.7089 14.0794 10.5169 14.0581V19.0499L13.7594 21.8658H0L3.09321 19.0499V3.02921L0 0H10.7942ZM10.4956 11.8182H10.6662C13.7168 11.8182 14.7407 10.0903 14.7407 7.10371C14.7407 3.62652 13.5674 2.09058 10.4956 1.7066V11.8182ZM139.514 18.8803C138.96 18.8803 138.618 18.5817 138.618 18.027V11.222C138.618 5.93151 135.034 4.13958 130.107 4.13958C125.414 4.13958 121.659 6.2515 121.659 8.72606C121.659 10.262 122.875 10.9233 124.347 10.9233C126.16 10.9233 127.504 10.3047 128.357 9.4087C127.632 8.72606 127.269 7.87276 127.269 7.21146C127.269 6.29416 127.76 5.67552 128.741 5.67552C130.491 5.67552 132.048 7.48878 132.048 10.1127V10.5393C124.134 11.7553 121.147 14.9338 121.147 18.027C121.147 20.7576 123.174 22.3575 125.712 22.3575C127.952 22.3575 130.405 21.1202 131.792 18.219H131.899V18.603C131.899 21.4615 133.605 22.3362 135.504 22.3362C137.936 22.3362 140.325 20.8002 141.477 18.3683C140.88 18.6456 140.261 18.8803 139.514 18.8803ZM132.091 14.4432C132.091 16.8111 131.067 17.7284 129.765 17.7284C128.656 17.7284 127.739 16.6404 127.739 15.1685C127.739 13.8245 128.635 12.9712 129.915 12.9712C130.832 12.9712 131.621 13.2699 132.112 13.5899V14.4432H132.091ZM113.382 4.5875C114.662 5.18481 115.387 6.12344 115.387 7.70204C115.387 9.15265 114.918 10.8806 114.065 12.6298L112.891 15.0191L111.803 12.9925C110.843 11.2432 109.862 9.3873 109.862 7.70204C109.862 6.1661 110.587 5.20614 111.739 4.5875H99.3666C100.26 5.32303 101.239 7.1512 102.045 8.6557C102.221 8.98386 102.388 9.29663 102.545 9.5793L110.097 22.8694L117.52 9.87795C118.608 7.97936 119.91 5.93145 121.467 4.5875H113.382ZM31.508 14.1648L41.1929 10.8156C41.0009 7.1038 37.9717 4.18125 33.3213 4.18125C28.8628 4.18125 24.7883 7.91443 24.7883 13.3115C24.7883 19.178 29.6734 22.4632 34.0466 22.4632C37.6944 22.4632 41.4063 20.2019 42.0249 15.5728C40.937 16.5327 39.2944 17.1514 37.4598 17.1514C34.9639 17.13 32.8946 15.8714 31.508 14.1648ZM31.5933 7.08246C32.788 7.08246 34.3026 8.23442 35.1132 10.5383L30.612 12.7569C30.0787 11.7329 29.7801 10.6237 29.7801 9.57836C29.7801 7.91443 30.5694 7.08246 31.5933 7.08246ZM52.4138 6.20883C51.0485 6.20883 50.2379 6.76348 50.2379 7.72344C50.2379 9.00884 51.8974 9.59172 53.8575 10.2802C56.6791 11.2712 60.1236 12.481 60.1362 16.3204C60.1362 19.9896 57.4056 22.3148 51.7952 22.4215C49.5553 22.4642 46.5687 22.1655 44.8621 21.2482L43.7742 15.5951C46.8247 19.0936 49.6193 20.1816 51.5178 20.1816C52.8831 20.1816 53.6938 19.6269 53.6938 18.539C53.6938 17.3273 52.071 16.7263 50.1614 16.0192C47.4315 15.0083 44.1155 13.7803 44.1155 10.2407C44.1155 6.69948 47.422 4.13958 52.3498 4.13958C54.9097 4.13958 56.8723 4.63023 58.2162 5.12088L58.9415 10.518C56.723 7.12613 54.0777 6.20883 52.4138 6.20883ZM68.8398 14.1648L78.5247 10.8156C78.3327 7.1038 75.3035 4.18125 70.653 4.18125C66.1946 4.18125 62.1201 7.91443 62.1201 13.3115C62.1201 19.178 67.0052 22.4632 71.3783 22.4632C75.0262 22.4632 78.738 20.2019 79.3567 15.5728C78.2687 16.5327 76.6261 17.1514 74.7915 17.1514C72.2956 17.13 70.2264 15.8714 68.8398 14.1648ZM68.9251 7.08246C70.1197 7.08246 71.6343 8.23442 72.445 10.5383L67.9438 12.7569C67.4105 11.7329 67.1119 10.6237 67.1119 9.57836C67.1119 7.91443 67.9012 7.08246 68.9251 7.08246ZM89.6177 4.39375C96.4867 4.39375 98.9186 6.05768 98.9186 9.08689C98.9186 10.9428 97.5107 12.0948 95.5268 12.7561L101.159 21.865H99.4093C94.5668 21.865 92.4976 20.5211 89.6603 15.0386H89.191H88.7004V19.0065L91.3029 21.865H79.4848L82.3433 19.1131V7.61495L79.4634 4.39375H89.6177ZM88.7217 13.2254H88.8497C91.5376 13.2254 92.3909 11.6255 92.3909 9.57754C92.3909 7.74295 91.4096 5.84436 88.7217 6.03635V13.2254Z" fill="black"></path>
          <path d="M159.482 20.4155C159.162 20.1596 157.669 19.1783 156.943 18.5383C156.666 18.2823 156.858 18.005 156.559 17.685C156.154 17.301 155.727 16.8744 155.279 16.4264C154.831 15.9571 154.405 15.4451 153.978 14.9118C153.594 14.3785 152.421 12.7572 151.461 11.6906C150.437 10.5386 148.496 9.13068 147.962 7.8294C147.941 7.74407 147.898 7.65874 147.877 7.57341C147.749 7.16809 147.706 6.69878 147.728 6.14414C147.749 5.61082 147.898 5.09885 148.474 4.20288C149.114 3.24292 148.986 2.81627 148.773 2.77361C148.56 2.73094 148.325 2.75228 148.56 1.74965C148.773 0.87502 148.624 0.512368 148.496 0.299044C148.368 0.0857194 148.218 -0.0209429 148.09 0.021722C147.813 0.0857194 147.6 0.725693 147.344 0.896353C147.28 0.939017 146.917 1.13101 147.002 0.320376C147.024 0.128384 146.896 0.0643869 146.704 0.171049C146.426 0.341709 146.042 0.78969 145.829 1.62166C145.808 1.66432 145.765 1.68565 145.744 1.62166C145.701 1.51499 145.701 1.323 145.765 1.00301C145.829 0.704361 145.957 0.448371 145.829 0.427039C145.658 0.384374 145.402 0.747025 145.21 1.17367C145.189 1.23767 145.168 1.259 145.146 1.30167C145.125 1.34433 145.061 1.387 145.061 1.28034C145.061 1.21634 145.082 1.08834 145.125 0.939018C145.146 0.87502 145.104 0.853688 145.082 0.853688C145.018 0.832355 144.954 0.87502 144.869 0.939018C144.677 1.08834 144.485 1.34433 144.336 1.70699C144.314 1.74965 144.314 1.79232 144.293 1.83498V1.85631C144.293 1.87765 144.293 1.87765 144.272 1.89898C144.272 1.92031 144.25 1.94164 144.25 1.96298C144.25 1.98431 144.229 2.02697 144.229 2.04831V2.06964C144.208 2.1123 144.208 2.1763 144.186 2.2403C144.165 2.30429 144.165 2.36829 144.165 2.43229C144.165 2.43229 144.165 2.43229 144.165 2.45362C144.144 2.62428 144.144 2.77361 144.144 2.94427C144.144 2.9656 144.144 2.98693 144.144 3.0296C144.144 3.11493 143.93 3.13626 143.994 3.32825C144.101 3.8189 144.293 4.30955 144.378 4.56553C144.421 4.65086 144.357 4.75753 144.272 4.80019C143.824 4.92819 142.586 5.31217 141.733 5.84548C141.691 5.86681 141.648 5.95214 141.691 6.01614C141.733 6.08014 141.84 6.08014 141.883 6.05881C142.864 5.73882 144.272 5.26951 144.954 5.76015C145.445 6.1228 145.509 6.9761 145.189 7.8934C145.082 8.23472 144.976 8.53337 144.869 8.85336C143.418 12.6505 146.085 14.4211 148.517 16.6824C148.688 16.853 149.072 17.2583 149.392 17.749C149.626 18.0903 149.882 18.4956 149.84 18.8796C149.818 19.1996 149.776 19.5836 149.648 20.0956C149.52 20.7142 149.37 20.4155 148.389 20.1596C148.09 20.0742 148.069 20.1169 147.877 20.5222C147.685 20.9489 147.664 20.9915 147.706 21.0342C147.749 21.0555 149.562 21.0555 149.776 21.0769C149.797 21.0769 149.84 21.0982 149.861 21.0982C150.074 21.2048 151.077 21.6742 151.375 21.8875C151.439 21.9302 151.546 21.9088 151.589 21.8662C151.631 21.8022 151.61 21.7168 151.546 21.6742C151.098 21.3968 150.181 20.7142 150.16 20.5009C150.16 20.4155 150.224 20.1169 150.266 19.8822C150.437 18.8156 150.458 18.4316 150.885 18.2183C151.29 18.0263 152.229 18.517 152.954 18.6876C152.997 18.6876 153.018 18.7303 152.997 18.7516C152.975 18.8583 152.911 19.1143 152.783 19.5196C152.762 19.5836 152.719 19.7116 152.591 19.7542C152.442 19.7969 151.823 19.5623 151.397 19.4769C151.226 19.4343 151.162 19.3276 150.778 20.1596C150.757 20.2236 150.757 20.2449 150.778 20.2449C150.799 20.2662 152.527 20.3515 152.783 20.3942C152.826 20.3942 152.869 20.4155 152.911 20.4369C153.551 20.7569 154.085 21.0342 154.426 21.2262C154.618 21.3328 154.682 21.3755 154.746 21.3115C154.831 21.2262 154.746 21.1409 154.682 21.0769C154.639 21.0342 154.255 20.7569 153.871 20.5009C153.509 20.2449 153.167 20.0742 153.167 19.9462C153.167 19.8822 153.21 19.6689 153.231 19.6049C153.253 19.5623 153.381 19.0716 153.423 18.9009C153.423 18.8583 153.466 18.8369 153.509 18.8583C155.365 19.4769 155.941 20.6715 157.349 21.4182C159.055 22.2928 160.932 21.5462 159.482 20.4155Z" fill="#E4002B"></path>
        </svg>